<?xml version="1.0" encoding="utf-8"?>
<!-- Generator: Adobe Illustrator 25.2.3, SVG Export Plug-In . SVG Version: 6.00 Build 0)  -->
<svg version="1.1" id="Layer_1" xmlns="http://www.w3.org/2000/svg" xmlns:xlink="http://www.w3.org/1999/xlink" x="0px" y="0px"
	 viewBox="0 0 20 20" style="enable-background:new 0 0 20 20;" xml:space="preserve">
<path d="M17.7,0H7.9C6.7,0,5.6,1,5.6,2.3v2.6H2.3C1,4.9,0,6,0,7.2v10.5C0,19,1,20,2.3,20h9.8c1.3,0,2.3-1,2.3-2.3v-2.6h3.4
	c1.3,0,2.3-1,2.3-2.3V2.3C20,1,19,0,17.7,0z M13.6,17.7c0,0.9-0.7,1.5-1.5,1.5H2.3c-0.9,0-1.5-0.7-1.5-1.5V7.2
	c0-0.9,0.7-1.5,1.5-1.5h3.4v7.1c0,1.3,1,2.3,2.3,2.3h5.7V17.7z M19.2,12.8c0,0.9-0.7,1.5-1.5,1.5h-3.4h-0.8H7.9
	c-0.9,0-1.5-0.7-1.5-1.5V5.7V4.9V2.3c0-0.9,0.7-1.5,1.5-1.5h9.8c0.9,0,1.5,0.7,1.5,1.5V12.8z"/>
</svg>
