<?xml version="1.0" encoding="utf-8"?>
<!-- Generator: Adobe Illustrator 15.0.0, SVG Export Plug-In . SVG Version: 6.00 Build 0)  -->
<!DOCTYPE svg PUBLIC "-//W3C//DTD SVG 1.1//EN" "http://www.w3.org/Graphics/SVG/1.1/DTD/svg11.dtd">
<svg version="1.1" id="Layer_1" xmlns="http://www.w3.org/2000/svg" xmlns:xlink="http://www.w3.org/1999/xlink" x="0px" y="0px"
	 width="792px" height="612px" viewBox="0 0 792 612" enable-background="new 0 0 792 612" xml:space="preserve">
<path d="M606.625,76.5H405.812H185.875c-31.688,0-57.375,25.688-57.375,57.375v76.5c0,31.676,25.688,57.375,57.375,57.375h219.938
	h200.812c31.676,0,57.375-25.699,57.375-57.375v-76.5C664,102.188,638.301,76.5,606.625,76.5z"/>
<path d="M530.123,344.25H405.812H262.375c-31.688,0-57.375,25.699-57.375,57.375v76.5c0,31.676,25.688,57.375,57.375,57.375h143.435
	h124.312c31.688,0,57.375-25.688,57.375-57.375v-76.5C587.498,369.949,561.799,344.25,530.123,344.25z"/>
<path d="M747.688,430.312h-110H154.812h-110c-5.281,0-9.562,4.279-9.562,9.562s4.282,9.562,9.562,9.562h109.99
	c0.003,0,0.006,0,0.01,0h592.875c5.26,0,9.562-4.279,9.562-9.562S752.946,430.312,747.688,430.312z"/>
<path d="M747.688,162.562h-110H154.812h-110c-5.281,0-9.562,4.279-9.562,9.562s4.282,9.562,9.562,9.562h109.99
	c0.003,0,0.006,0,0.01,0h592.875c5.26,0,9.562-4.279,9.562-9.562S752.946,162.562,747.688,162.562z"/>
</svg>
