<?xml version="1.0" encoding="utf-8"?>
<!-- Generator: Adobe Illustrator 25.2.3, SVG Export Plug-In . SVG Version: 6.00 Build 0)  -->
<svg version="1.1" id="Layer_1" xmlns="http://www.w3.org/2000/svg" xmlns:xlink="http://www.w3.org/1999/xlink" x="0px" y="0px"
	 viewBox="0 0 20 20" style="enable-background:new 0 0 20 20;" xml:space="preserve">
<path d="M18.2,15.5V4.5c1-0.2,1.8-1.1,1.8-2.2C20,1,19,0,17.8,0c-1.1,0-2,0.8-2.2,1.8H4.5C4.3,0.8,3.3,0,2.2,0C1,0,0,1,0,2.2
	c0,1.1,0.8,2,1.8,2.2v11.1c-1,0.2-1.8,1.1-1.8,2.2C0,19,1,20,2.2,20c1.1,0,2-0.8,2.2-1.8h11.1c0.2,1,1.1,1.8,2.2,1.8
	c1.2,0,2.2-1,2.2-2.2C20,16.7,19.2,15.7,18.2,15.5z M17.8,0.8c0.8,0,1.5,0.7,1.5,1.5s-0.7,1.5-1.5,1.5s-1.5-0.7-1.5-1.5
	S16.9,0.8,17.8,0.8z M0.8,2.2c0-0.8,0.7-1.5,1.5-1.5s1.5,0.7,1.5,1.5S3.1,3.8,2.2,3.8S0.8,3.1,0.8,2.2z M2.2,19.2
	c-0.8,0-1.5-0.7-1.5-1.5s0.7-1.5,1.5-1.5s1.5,0.7,1.5,1.5S3.1,19.2,2.2,19.2z M15.5,17.4H4.5c-0.1-1-0.9-1.7-1.9-1.9V4.5
	c1-0.1,1.7-0.9,1.9-1.9h11.1c0.1,1,0.9,1.7,1.9,1.9v11.1C16.4,15.7,15.7,16.4,15.5,17.4z M17.8,19.2c-0.8,0-1.5-0.7-1.5-1.5
	s0.7-1.5,1.5-1.5s1.5,0.7,1.5,1.5S18.6,19.2,17.8,19.2z"/>
</svg>
