<?xml version="1.0" encoding="utf-8"?>
<!-- Generator: Adobe Illustrator 15.0.0, SVG Export Plug-In . SVG Version: 6.00 Build 0)  -->
<!DOCTYPE svg PUBLIC "-//W3C//DTD SVG 1.1//EN" "http://www.w3.org/Graphics/SVG/1.1/DTD/svg11.dtd">
<svg version="1.1" id="Layer_1" xmlns="http://www.w3.org/2000/svg" xmlns:xlink="http://www.w3.org/1999/xlink" x="0px" y="0px"
	 width="792px" height="612px" viewBox="0 0 792 612" enable-background="new 0 0 792 612" xml:space="preserve">
<g>
	<path d="M385.071,10.929v590.143c0,6.036,4.918,10.929,9.699,10.929s12.158-4.893,12.158-10.929V10.929
		c0-6.035-4.905-10.929-10.94-10.929C389.952,0,385.071,4.918,385.071,10.929z"/>
	<g>
		<path d="M755.432,485.584c0,1.017-0.037,2.066-0.112,3.213c-1.584,24.028-21.695,43.141-45.785,43.514l-163.823,2.543l1.871-0.531
			l-40.849,0.633c-25.335,0.395-46.104-19.121-47.283-44.43l-0.014-0.289c-0.019-0.384-0.035-0.77-0.042-1.16
			c-0.016-1.059,0.008-2.107,0.076-3.338l2.743-376.554c0.141-15.084,8.622-27.587,21.107-31.127
			c13.021-3.689,27.463,2.891,34.481,15.661l228.183,363.842c1.757,2.318,3.303,4.812,4.598,7.42
			c3.105,6.254,4.735,12.98,4.844,19.993L755.432,485.584z M692.654,513.245l16.58-0.258c14.103-0.218,25.875-11.401,26.802-25.458
			c0.047-0.719,0.07-1.355,0.07-1.945l-0.002-0.318c-0.063-4.103-1.016-8.037-2.829-11.689c-0.803-1.617-1.768-3.156-2.87-4.576
			l-0.551-0.788L501.096,103.451l-0.156-0.293c-3.023-5.645-8.618-7.565-12.347-6.511c-4.159,1.182-6.995,6.283-7.054,12.697
			l-2.747,377.032l-0.016,0.253c-0.042,0.708-0.062,1.283-0.062,1.808l0.002,0.315c0.003,0.187,0.014,0.375,0.023,0.562l0.015,0.338
			c0.688,14.788,12.847,26.212,27.679,25.98l188.081-2.915L692.654,513.245z"/>
	</g>
	<g>
		<path d="M36.573,484.974c0.108-7.013,1.738-13.739,4.844-19.993c1.295-2.608,2.841-5.102,4.598-7.42L274.197,93.719
			c7.019-12.771,21.46-19.351,34.481-15.661c12.485,3.54,20.967,16.043,21.107,31.127l2.743,376.554
			c0.068,1.23,0.092,2.279,0.076,3.338c-0.007,0.391-0.023,0.776-0.042,1.16l-0.014,0.289c-1.179,25.309-21.948,44.824-47.283,44.43
			l-40.849-0.633l1.871,0.531l-163.823-2.543c-24.09-0.373-44.201-19.485-45.785-43.514c-0.075-1.146-0.112-2.196-0.112-3.213
			L36.573,484.974z"/>
	</g>
</g>
</svg>
