<?xml version="1.0" encoding="utf-8"?>
<!-- Generator: Adobe Illustrator 25.2.3, SVG Export Plug-In . SVG Version: 6.00 Build 0)  -->
<svg version="1.1" id="Layer_1" xmlns="http://www.w3.org/2000/svg" xmlns:xlink="http://www.w3.org/1999/xlink" x="0px" y="0px"
	 viewBox="0 0 20 20" style="enable-background:new 0 0 20 20;" xml:space="preserve">
<path d="M6.2,13.3c1.2,0,2.2-0.5,2.9-1.1v-3h-3v1.1h1.8v1.3c-0.4,0.3-1,0.5-1.7,0.5c-1.4,0-2.4-1.1-2.4-2.5v0c0-1.3,1-2.5,2.3-2.5
	c0.9,0,1.4,0.3,2,0.8L8.9,7c-0.7-0.6-1.5-1-2.7-1c-2.1,0-3.6,1.7-3.6,3.6v0C2.5,11.8,4,13.3,6.2,13.3z"/>
<path d="M12.1,11.5h3.3l0.7,1.7h1.3l-3.1-7.1h-1.1l-3.1,7.1h1.3L12.1,11.5z M13.8,7.6l1.2,2.8h-2.4L13.8,7.6z"/>
<g>
	<path d="M14.8,19H5.2c-0.1,0-0.3-0.1-0.3-0.2l-4.8-8.6C0,10.1,0,9.9,0.1,9.8l4.8-8.6C4.9,1.1,5.1,1,5.2,1h9.6
		c0.1,0,0.3,0.1,0.3,0.2l4.8,8.6c0.1,0.1,0.1,0.3,0,0.4l-4.8,8.6C15.1,18.9,14.9,19,14.8,19z M5.4,18.2h9.2l4.6-8.2l-4.6-8.2H5.4
		L0.8,10L5.4,18.2z"/>
</g>
</svg>
