<?xml version="1.0" standalone="no"?>
<!DOCTYPE svg PUBLIC "-//W3C//DTD SVG 20010904//EN"
 "http://www.w3.org/TR/2001/REC-SVG-20010904/DTD/svg10.dtd">
<svg version="1.0" xmlns="http://www.w3.org/2000/svg"
 width="64.000000pt" height="64.000000pt" viewBox="0 0 64.000000 64.000000"
 preserveAspectRatio="xMidYMid meet">

<g transform="translate(0.000000,64.000000) scale(0.100000,-0.100000)"
fill="#000000" stroke="none">
<path d="M266 507 c-10 -8 -29 -12 -41 -9 -37 7 -65 -30 -65 -85 0 -37 -7 -57
-30 -87 -42 -55 -39 -83 15 -150 55 -67 89 -80 203 -75 140 7 172 49 172 227
0 100 -2 114 -21 133 -11 11 -30 19 -42 18 -12 -2 -33 3 -46 10 -12 7 -31 11
-40 8 -10 -2 -26 2 -36 9 -24 18 -46 18 -69 1z m52 -70 c2 -28 8 -37 22 -37
13 0 20 8 22 28 2 16 9 27 18 27 9 0 16 -11 18 -27 4 -34 37 -39 45 -7 3 12
12 19 19 17 18 -6 23 -201 7 -241 -18 -42 -56 -57 -150 -57 l-82 0 -49 49
c-36 36 -49 56 -46 73 2 19 8 22 30 20 l27 -3 3 88 c2 70 6 88 18 88 9 0 16
-11 18 -27 2 -20 9 -28 23 -28 15 0 19 7 19 33 0 61 33 63 38 4z"/>
</g>
</svg>
