<?xml version="1.0" encoding="utf-8"?>
<!-- Generator: Adobe Illustrator 15.0.0, SVG Export Plug-In . SVG Version: 6.00 Build 0)  -->
<!DOCTYPE svg PUBLIC "-//W3C//DTD SVG 1.1//EN" "http://www.w3.org/Graphics/SVG/1.1/DTD/svg11.dtd">
<svg version="1.1" id="Layer_1" xmlns="http://www.w3.org/2000/svg" xmlns:xlink="http://www.w3.org/1999/xlink" x="0px" y="0px"
	 width="792px" height="612px" viewBox="0 0 792 612" enable-background="new 0 0 792 612" xml:space="preserve">
<path d="M529.875,344.25h-229.5c-31.676,0-57.375,25.699-57.375,57.375v76.5c0,31.676,25.699,57.375,57.375,57.375h229.5
	c31.688,0,57.375-25.688,57.375-57.375v-76.5C587.25,369.949,561.551,344.25,529.875,344.25z M529.875,76.5h-382.5
	C115.688,76.5,90,102.188,90,133.875v76.5c0,31.676,25.688,57.375,57.375,57.375h382.5c31.676,0,57.375-25.699,57.375-57.375v-76.5
	C587.25,102.188,561.551,76.5,529.875,76.5z M692.438,0c-5.281,0-9.562,4.282-9.562,9.562v592.875c0,5.281,4.281,9.562,9.562,9.562
	s9.562-4.303,9.562-9.562V9.562C702,4.282,697.697,0,692.438,0z"/>
</svg>
