<?xml version="1.0" encoding="utf-8"?>
<!-- Generator: Adobe Illustrator 15.0.0, SVG Export Plug-In . SVG Version: 6.00 Build 0)  -->
<!DOCTYPE svg PUBLIC "-//W3C//DTD SVG 1.1//EN" "http://www.w3.org/Graphics/SVG/1.1/DTD/svg11.dtd">
<svg version="1.1" id="Layer_1" xmlns="http://www.w3.org/2000/svg" xmlns:xlink="http://www.w3.org/1999/xlink" x="0px" y="0px"
	 width="792px" height="612px" viewBox="0 0 792 612" enable-background="new 0 0 792 612" xml:space="preserve">
<path d="M606.375,76.5H405.562V9.562C405.562,4.282,401.26,0,396,0c-5.259,0-9.562,4.282-9.562,9.562V76.5H185.625
	c-31.688,0-57.375,25.688-57.375,57.375v76.5c0,31.676,25.688,57.375,57.375,57.375h200.812v76.5H262.125
	c-31.688,0-57.375,25.699-57.375,57.375v76.5c0,31.676,25.688,57.375,57.375,57.375h124.312v66.938c0,5.26,4.303,9.562,9.562,9.562
	c5.26,0,9.562-4.281,9.562-9.562V535.5h124.312c31.688,0,57.375-25.688,57.375-57.375v-76.5c0-31.676-25.699-57.375-57.375-57.375
	H405.562v-76.5h200.812c31.676,0,57.375-25.699,57.375-57.375v-76.5C663.75,102.188,638.051,76.5,606.375,76.5z"/>
</svg>
