<?xml version="1.0" encoding="utf-8"?>
<!-- Generator: Adobe Illustrator 25.2.3, SVG Export Plug-In . SVG Version: 6.00 Build 0)  -->
<svg version="1.1" id="Layer_1" xmlns="http://www.w3.org/2000/svg" xmlns:xlink="http://www.w3.org/1999/xlink" x="0px" y="0px"
	 viewBox="0 0 20 20" style="enable-background:new 0 0 20 20;" xml:space="preserve">
<g>
	<path d="M10,7.1c-1.6,0-2.9,1.3-2.9,2.9s1.3,2.9,2.9,2.9s2.9-1.3,2.9-2.9S11.6,7.1,10,7.1z M10,11.9c-1,0-1.9-0.8-1.9-1.9
		S9,8.1,10,8.1S11.9,9,11.9,10S11,11.9,10,11.9z"/>
	<path d="M17.1,7.1c-1.6,0-2.9,1.3-2.9,2.9s1.3,2.9,2.9,2.9c1.6,0,2.9-1.3,2.9-2.9S18.7,7.1,17.1,7.1z M15.2,10c0-1,0.8-1.9,1.9-1.9
		c1,0,1.9,0.8,1.9,1.9s-0.8,1.9-1.9,1.9C16.1,11.9,15.2,11,15.2,10z"/>
	<path d="M2.9,7.1C1.3,7.1,0,8.4,0,10s1.3,2.9,2.9,2.9c1.6,0,2.9-1.3,2.9-2.9S4.5,7.1,2.9,7.1z M2.9,11.9C1.8,11.9,1,11,1,10
		s0.8-1.9,1.9-1.9c1,0,1.9,0.8,1.9,1.9S3.9,11.9,2.9,11.9z"/>
</g>
</svg>
