<?xml version="1.0" encoding="utf-8"?>
<!-- Generator: Adobe Illustrator 25.2.3, SVG Export Plug-In . SVG Version: 6.00 Build 0)  -->
<svg version="1.1" id="Layer_1" xmlns="http://www.w3.org/2000/svg" xmlns:xlink="http://www.w3.org/1999/xlink" x="0px" y="0px"
	 viewBox="0 0 20 20" style="enable-background:new 0 0 20 20;" xml:space="preserve">
<path d="M15.6,8.7C13.3,7.1,11,5.5,8.7,3.9C7.6,3.1,6.5,2.4,5.4,1.6C5.2,1.5,5,1.4,4.8,1.3c-0.1,0-0.1-0.1-0.2-0.1
	c-0.1,0-0.3,0.1-0.3,0.2c0,0.1,0,0.2,0,0.3c0.2,2.5,0.4,5,0.5,7.5C5,11.1,5.1,13.1,5.3,15c0,0.2,0,0.4,0.1,0.6
	c0,0.1,0.1,0.1,0.1,0.2c0.1,0.1,0.1,0.1,0.2,0c0.1,0,0.1-0.1,0.2-0.2c0.3-0.3,0.6-0.7,0.9-1c0.7-0.9,1.5-1.8,2.2-2.7
	c0,0,0-0.1,0.1-0.1c0.1,0.1,0.2,0.3,0.2,0.4c1,1.7,2,3.5,3,5.2c0.1,0.2,0.2,0.4,0.4,0.6c0,0.1,0.1,0.1,0.2,0.2c0,0,0,0,0.1,0
	c0.1,0,0.2-0.1,0.3-0.1c0.5-0.3,1-0.5,1.4-0.8c0.1-0.1,0.2-0.2,0.3-0.2c0,0,0-0.1,0-0.1c-0.1-0.2-0.1-0.4-0.2-0.5
	c-0.7-1.3-1.4-2.5-2.2-3.8c-0.4-0.7-0.8-1.4-1.2-2c0,0,0,0-0.1-0.1c0,0,0.1,0,0.1,0c1.3-0.2,2.7-0.4,4-0.6c0.3,0,0.5-0.1,0.8-0.1
	c0.1,0,0.1,0,0.2-0.1c0.2-0.1,0.2-0.3,0-0.5C16.1,9.1,15.9,8.9,15.6,8.7z"/>
</svg>
