<?xml version="1.0" encoding="utf-8"?>
<!-- Generator: Adobe Illustrator 25.2.3, SVG Export Plug-In . SVG Version: 6.00 Build 0)  -->
<svg version="1.1" id="Layer_1" xmlns="http://www.w3.org/2000/svg" xmlns:xlink="http://www.w3.org/1999/xlink" x="0px" y="0px"
	 viewBox="0 0 20 20" style="enable-background:new 0 0 20 20;" xml:space="preserve">
<g>
	<path d="M10,16.3c-0.6,0-1.2-0.1-1.8-0.3c-0.4,0.4-0.6,1-0.6,1.6c0,1.4,1.1,2.5,2.5,2.5c1.4,0,2.5-1.1,2.5-2.5
		c-0.1-0.7-0.3-1.2-0.7-1.7C11.3,16.1,10.7,16.3,10,16.3z"/>
	<path d="M10,3.8c0.6,0,1.2,0.1,1.8,0.3c0.4-0.4,0.6-1,0.6-1.6C12.5,1.1,11.4,0,10,0S7.5,1.1,7.5,2.5c0,0.6,0.2,1.1,0.6,1.6
		C8.8,3.9,9.4,3.8,10,3.8z"/>
	<path d="M3.2,16.2c-0.6,0-1.2-0.1-1.8-0.3c-0.4,0.4-0.6,1-0.6,1.6c0,1.4,1.1,2.5,2.5,2.5c1.4,0,2.5-1.1,2.5-2.5
		c-0.1-0.6-0.3-1.2-0.7-1.7C4.5,16,3.9,16.2,3.2,16.2z"/>
	<path d="M3.2,3.7C3.8,3.7,4.4,3.8,5,4c0.4-0.4,0.6-1,0.6-1.6C5.7,1.1,4.6,0,3.2,0C1.9,0,0.8,1.1,0.8,2.5C0.8,3,1,3.6,1.4,4.1
		C2,3.8,2.6,3.7,3.2,3.7z"/>
	<path d="M16.7,16.2c-0.6,0-1.2-0.1-1.8-0.3c-0.4,0.4-0.6,1-0.6,1.6c0,1.4,1.1,2.5,2.5,2.5c1.4,0,2.5-1.1,2.5-2.5
		c-0.1-0.6-0.3-1.2-0.7-1.7C18,16,17.4,16.2,16.7,16.2z"/>
	<path d="M16.8,3.7c0.6,0,1.2,0.1,1.8,0.3c0.4-0.4,0.6-1,0.6-1.6c0-1.4-1.1-2.5-2.5-2.5c-1.4,0-2.5,1.1-2.5,2.5
		c0.1,0.6,0.3,1.2,0.7,1.7C15.5,3.9,16.1,3.7,16.8,3.7z"/>
	<path d="M19.2,5.1H0.8C0.4,5.1,0,5.5,0,5.9v8.2c0,0.5,0.4,0.8,0.8,0.8h18.4c0.5,0,0.8-0.4,0.8-0.8V5.9C20,5.5,19.6,5.1,19.2,5.1z
		 M19.2,14.1C19.2,14.1,19.2,14.2,19.2,14.1L0.8,14.2c0,0-0.1,0-0.1-0.1V5.9c0,0,0-0.1,0.1-0.1h18.4c0,0,0.1,0,0.1,0.1V14.1z"/>
</g>
</svg>
